<?xml version="1.0" encoding="UTF-8" standalone="yes"?>
<svg width="270" height="270" viewBox="0 0 688 726" fill="none" xmlns="http://www.w3.org/2000/svg">
  <path fill-rule="evenodd" clip-rule="evenodd" d="M68.2637 0.240082C111.053 1.80786 163.726 10.5206 186.819 76H205V41C205 35.4771 209.477 31 215 31C220.523 31 225 35.4771 225 41V76H291V10C291 4.47714 295.477 0 301 0C306.523 0 311 4.47714 311 10V76H377V10C377 4.47714 381.477 0 387 0C392.523 0 397 4.47714 397 10V76H463V41C463 35.4771 467.477 31 473 31C478.523 31 483 35.4771 483 41V76H501.004C524.097 10.5202 576.77 1.80795 619.558 0.240265C621.292 0.081604 623.047 0.000518799 624.822 0.000518799H628.516C628.602 0.000152588 628.688 0.000152588 628.774 0.000518799H630.82C662.3 0.000518799 687.82 25.5203 687.82 57.0005C687.82 88.4807 662.3 114.001 630.82 114.001H627.821C607.911 114.65 598.431 108.837 590.312 103.859C579.673 97.3357 571.37 92.2452 544.998 105.007C542.544 128.33 569.303 181.525 595.78 234.158L595.781 234.159C616.742 275.828 637.526 317.145 643.496 343.007C657.007 401.536 652.495 468.007 645.995 497.507C635.465 545.3 592.481 599.362 531.158 640H569V726H119V640H156.665C95.3403 599.362 52.3563 545.3 41.8256 497.507C35.3257 468.007 30.8131 401.536 44.3245 343.007C50.2947 317.144 71.0793 275.827 92.0413 234.158C118.518 181.525 145.278 128.33 142.824 105.007C116.451 92.245 108.149 97.3354 97.5091 103.859C89.39 108.837 79.9098 114.649 60 114H57C25.5198 114 0 88.4805 0 57.0003C0 25.52 25.5198 0.000274658 57 0.000274658H59.0475L59.1733 0L59.3051 0.000274658H63C64.7747 0.000274658 66.5304 0.0813599 68.2637 0.240082ZM377 137H311V588.73C321.589 589.895 332.543 590.507 343.825 590.507V640H344V590.507C355.344 590.507 366.357 589.888 377 588.711V137ZM397 585.771V137H463V563.96C443.665 573.714 421.481 581.26 397 585.771ZM225 137H291V585.803C266.523 581.309 244.34 573.783 225 564.048V137ZM483 552.439V137H495.565C498.654 151.808 504.001 169.305 510.151 189.425L510.151 189.426L510.151 189.426C529.881 253.98 557.866 345.544 545.998 462.007C542.584 495.501 519.781 528.342 483 552.439ZM192.257 137H205V552.555C168.115 528.447 145.243 495.555 141.824 462.007C129.956 345.544 157.941 253.979 177.671 189.426C183.821 169.305 189.169 151.808 192.257 137Z" fill="#fff" stroke="#fff"/>
</svg>