<?xml version="1.0" encoding="UTF-8" standalone="yes"?>
<svg xmlns="http://www.w3.org/2000/svg" viewBox="0 0 200 200">
  <path d="M137.5,46.5l-39.2,20.7l-28.6-15.1l4.4-9.4l-31.2-16.5l-6.5,6.3l27.5,14.6l-11.9,25.4l-26.5-14l-2.2,4.6l29.1,15.4L70.4,98.2l28.6,15.1l-6.5,6.3l31.2,16.5l4.4-9.4l28.6,15.1l6.5-6.3l-27.5-14.6l12-25.4l26.5,14l2.2-4.6l-29.1-15.4L129.6,101l-28.6-15.1l6.5-6.3l-31.2-16.5l-4.4,9.4l-28.6-15.1l-6.5,6.3l27.5,14.6L62.9,53.2l-26.5-14l-2.2,4.6l29.1,15.4L70.4,46.5l39.2-20.7l28.6,15.1l-4.4,9.4l31.2,16.5l6.5-6.3L137.5,46.5z M100,60.5c-20.7,0-37.5,16.8-37.5,37.5s16.8,37.5,37.5,37.5s37.5-16.8,37.5-37.5S120.7,60.5,100,60.5z M100,124.5c-13.5,0-25-11-25-24.5c0-13.5,11-24.5,25-24.5s25,11,25,24.5C125,113.5,113.5,124.5,100,124.5z"/>
</svg>