<?xml version="1.0" encoding="UTF-8" standalone="yes"?>
<svg width="270" height="270" viewBox="0 0 887 951" fill="none" xmlns="http://www.w3.org/2000/svg">
  <path fill-rule="evenodd" clip-rule="evenodd" d="M321.046 238.564C344.935 229.3 359.11 225.692 393.376 229.046L393.376 620.519C387.497 620.449 381.969 620.337 376.708 620.23C345.596 619.598 323.808 619.156 293.763 628.768C282.17 477.314 258.297 394.46 187.805 249.984C202.872 240.135 216.507 240.221 246.177 246.177C173.163 163.928 120.095 137.052 0 129.433C104.436 258.717 134.323 331.248 178.923 460.631C204.273 563.574 213.915 622.485 218.26 730.918C285.644 712.661 323.742 705.153 393.376 706.174L393.376 950.448H493.624L493.624 706.174C563.258 705.153 601.356 712.661 668.74 730.918C673.085 622.485 682.727 563.574 708.077 460.631C752.677 331.248 782.564 258.717 887 129.433C766.905 137.052 713.837 163.928 640.823 246.177C670.493 240.221 684.128 240.135 699.195 249.984C628.703 394.46 604.83 477.314 593.237 628.768C563.192 619.156 541.404 619.598 510.292 620.23C505.031 620.337 499.503 620.449 493.624 620.519L493.624 228.925C527.022 225.783 542.996 229.415 566.589 238.564L505.362 119.282L444.134 0L444.178 3.13754L443.5 0L382.273 119.282L321.046 238.564Z" fill="#fff" stroke="#fff"/>
</svg>