<?xml version="1.0" encoding="UTF-8" standalone="yes"?>
<svg width="270" height="270" viewBox="0 0 466 835" fill="none" xmlns="http://www.w3.org/2000/svg">
  <path fill-rule="evenodd" clip-rule="evenodd" d="M233 343C338.628 343 417 269.19 417 186.5C417 153.847 404.779 122.578 383.485 96.6925C362.095 117.405 342.59 141.428 323.176 170.375C324.915 170.128 326.693 170 328.5 170C349.211 170 366 186.789 366 207.5C366 228.211 349.211 245 328.5 245C311.945 245 297.895 234.272 292.924 219.388C274.058 252.232 254.434 290.303 232.5 335C210.545 290.26 190.939 252.158 172.108 219.293C167.165 234.226 153.091 245 136.5 245C115.789 245 99 228.211 99 207.5C99 186.789 115.789 170 136.5 170C138.377 170 140.222 170.138 142.026 170.404C122.777 141.599 103.445 117.669 82.2419 97.0259C61.1163 122.846 49 153.987 49 186.5C49 269.19 127.372 343 233 343ZM447 186.5C447 145.446 431.779 107.489 405.986 76.6839C423.988 62.0068 443.535 49.041 465.5 37C432.346 40.0799 406.233 45.5256 384.096 54.4288C345.387 20.794 291.98 0 233 0C173.925 0 120.44 20.8612 81.7167 54.5919C59.548 45.592 33.3563 40.0987 0 37C22.101 49.1155 41.7293 62.1674 59.7861 76.9566C34.1317 107.713 19 145.567 19 186.5C19 227.538 34.2088 265.479 59.9822 296.278C34.861 342.759 20.1595 399.708 20.0013 461H20V462V494.343C20 569.148 54.1647 639.412 112 685.608V686H112.491C114.226 687.378 115.982 688.735 117.759 690.07C121.942 728.607 133.838 749.465 157.5 776.5V686H174V802.5L225 834.5V686H241V834L292 802.103V686H308V786C333.613 756.613 345.44 734.495 348.62 689.26C350.013 688.187 351.392 687.1 352.759 686H354V684.994C410.622 638.784 444 569.282 444 495.343V462C444 400.962 429.577 344.192 404.795 297.725C431.309 266.671 447 228.183 447 186.5ZM352.316 646C391.434 606.24 414 552.291 414 495.343V462C414 409.165 402.293 360.325 382.479 319.961C343.907 352.778 291.163 373 233 373C174.128 373 120.808 352.282 82.1164 318.755C61.9415 359.351 50 408.638 50 462V494.343C50 551.77 72.9469 606.147 112.674 646H352.316ZM355.09 69.4587C323.17 45.1694 280.886 30 233 30C184.958 30 142.554 45.2686 110.598 69.6968C151.218 96.3803 180.292 141.314 228.113 215.221L229.819 217.857C230.706 219.228 231.6 220.609 232.5 222C233.628 220.257 234.746 218.53 235.854 216.819C284.442 141.74 313.846 96.3037 355.09 69.4587Z" fill="#000" stroke="#000"/>
</svg>