<?xml version="1.0" encoding="UTF-8" standalone="yes"?>
<svg width="270" height="270" viewBox="0 0 742 787" fill="none" xmlns="http://www.w3.org/2000/svg">
  <path fill-rule="evenodd" clip-rule="evenodd" d="M275.808 26.8748V18.495L267.935 26.3683L265.107 23.5398L272.936 15.7104C272.894 15.6207 272.855 15.5297 272.818 15.4374H264.908V11.4374H272.818C272.87 11.3076 272.927 11.1804 272.988 11.0558L268.31 6.22953L271.182 3.44539L275.808 8.21794V0H279.808V8.4469C279.901 8.48391 279.992 8.5234 280.081 8.56529L287.911 0.735779L290.739 3.56421L282.866 11.4374H290.708V15.4374H282.807L287.643 20.4262L284.771 23.2103L282.928 21.3096L341.921 192.81L341.75 187.628L345.748 187.497L346.14 199.394C346.977 199.569 347.767 199.869 348.486 200.273L359.711 188.763L362.686 191.436L351.489 202.918L722.749 140.719L716.764 138.383L718.219 134.657L724.458 137.093L721.018 129.565L724.656 127.903L728.181 135.616C728.248 135.613 728.316 135.61 728.382 135.61C728.421 135.609 728.46 135.609 728.499 135.61L732.381 125.191L736.129 126.588L732.217 137.088L739.401 133.804L741.063 137.442L733.841 140.743L733.842 140.756L740.347 143.296L738.892 147.022L732.534 144.539C732.475 144.608 732.414 144.675 732.352 144.74L735.877 152.453L732.24 154.116L728.732 146.442L724.819 156.942L721.071 155.545L724.953 145.126C724.872 145.058 724.794 144.987 724.717 144.914L717.495 148.215L716.408 145.837L363.773 204.916L363.886 208.352L352.281 208.734C352.128 209.37 351.893 209.977 351.587 210.545L358.858 217.285L356.021 220.105L349.196 213.778L441.671 476.786L441.706 476.786L441.742 476.786L444.876 468.417L448.622 469.82L445.488 478.189C445.636 478.318 445.778 478.455 445.911 478.598L456.592 473.737L458.249 477.378L447.451 482.292L447.452 482.321C447.453 482.35 447.454 482.378 447.454 482.407C447.455 482.442 447.455 482.477 447.455 482.512L455.288 485.446L453.886 489.192L446.052 486.258C445.993 486.326 445.933 486.392 445.871 486.457L448.809 493.189L445.143 494.789L443.408 490.815L441.212 586.471L443.77 588.173L578.443 477.173C578.31 476.847 578.206 476.513 578.131 476.174L570.523 475.62L570.814 471.63L578.576 472.196C578.614 472.116 578.653 472.036 578.695 471.957C578.722 471.905 578.75 471.854 578.779 471.803L572.392 464.639L575.378 461.977L581.765 469.141C582.066 469.013 582.376 468.912 582.69 468.835L583.412 456.229L587.405 456.458L586.676 469.191C586.853 469.269 587.026 469.356 587.196 469.452L593.898 463.476L596.56 466.461L589.858 472.437C589.868 472.461 589.878 472.485 589.887 472.509C589.897 472.532 589.906 472.555 589.915 472.578C589.924 472.602 589.934 472.626 589.943 472.65L589.958 472.692C590 472.805 590.038 472.919 590.073 473.034L597.923 473.606L597.633 477.596L589.937 477.035C589.875 477.197 589.806 477.358 589.731 477.515C589.695 477.589 589.658 477.663 589.619 477.735C589.596 477.78 589.571 477.824 589.547 477.868L595.934 485.032L592.948 487.694L586.561 480.53C586.45 480.577 586.337 480.621 586.224 480.661C586.154 480.685 586.085 480.708 586.015 480.73L585.285 493.463L581.292 493.234L582.014 480.629C581.711 480.517 581.415 480.38 581.13 480.219L574.428 486.195L574.156 485.89L446.855 590.814L447.579 594.149L445.539 594.592L541.66 624.207C541.686 624.153 541.714 624.098 541.742 624.044L536.795 618.941L539.667 616.157L544.723 621.372L544.741 621.365L544.769 621.354L544.808 621.34V612.403H548.808V621.34C548.993 621.409 549.173 621.487 549.348 621.574L557.646 613.276L560.474 616.104L552.085 624.493C552.114 624.561 552.141 624.629 552.167 624.698H560.531V628.698H552.167L552.152 628.737L552.14 628.767L552.127 628.801C552.108 628.85 552.087 628.899 552.067 628.948L557.179 634.222L554.307 637.006L549.303 631.844C549.142 631.923 548.977 631.994 548.808 632.057V640.993H544.808V632.057C544.739 632.031 544.671 632.004 544.603 631.976L536.214 640.364L533.386 637.536L541.684 629.238C541.597 629.063 541.519 628.883 541.45 628.698H533.085V625.751L447.723 599.45L446.417 601.482L441.37 598.235L442.197 602.048L438.289 602.896L437.432 598.953L435.638 601.65L433.757 600.398L268.518 705.551L268.82 706.322L264.877 707.868L264.376 708.187L270.026 710.551L269.842 710.992L398.842 767.62L397.092 765.916L399.884 763.051L404.887 767.927L404.768 758.677L408.767 758.626L408.883 767.595L413.157 763.209L416.022 766.001L411.702 770.433L417.067 770.448L417.056 774.448L411.563 774.433L416.521 779.266L413.729 782.13L409.01 777.531L409.126 786.501L405.126 786.552L405.007 777.302L400.456 781.972L397.591 779.18L402.242 774.408L396.613 774.393L396.622 771.015L263.172 712.433L266.09 719.55L262.388 721.068L259.165 713.205L256.882 718.66L253.192 717.116L255.53 711.531L250.804 713.383L249.345 709.659L253.572 708.002L248.198 705.752L249.742 702.062L255.603 704.515L252.38 696.653L256.081 695.136L259.204 702.753L261.342 697.643L265.032 699.188L262.867 704.359L263.057 704.285L430.198 597.922L430.117 597.94L429.268 594.031L433.43 593.128L428.383 589.881L430.547 586.517L435.412 589.647L434.649 586.133L437.231 585.572L439.319 494.661L438.595 496.594L434.849 495.191L437.983 486.822C437.956 486.799 437.93 486.775 437.903 486.752C437.887 486.737 437.871 486.722 437.854 486.707L437.819 486.674L427.022 491.588L425.365 487.947L436.046 483.087C436.026 482.893 436.016 482.696 436.016 482.499L428.182 479.566L429.585 475.82L437.419 478.753C437.576 478.572 437.744 478.402 437.922 478.244L435.079 471.73L435.576 471.513L346.786 218.981L347.029 226.358L343.031 226.49L342.639 214.593C341.97 214.453 341.332 214.234 340.735 213.945L329.424 225.544L326.449 222.87L329.123 220.128L23.1136 450.432L27.4831 449.008L28.723 452.811L20.7002 455.426L30.6891 460.503L28.8767 464.069L18.9651 459.031C18.8881 459.104 18.8087 459.174 18.7271 459.242L21.1884 466.792L17.3854 468.031L14.9241 460.482C14.7776 460.472 14.6321 460.457 14.4878 460.436L11.3369 466.403L7.79967 464.536L10.9271 458.612L3.05844 461.178L1.81861 457.375L9.88174 454.746C9.88859 454.64 9.89857 454.534 9.91162 454.43L0 449.392L1.81244 445.826L11.8013 450.903L9.35314 443.394L13.1561 442.154L15.6175 449.704L15.6304 449.704L18.8909 443.529L22.4281 445.397L21.9505 446.301L336.688 209.429C336.668 209.37 336.648 209.31 336.629 209.25L325.024 209.633L324.893 205.635L336.498 205.252C336.698 204.42 337.039 203.638 337.494 202.929L330.417 196.368L333.253 193.548L340.141 199.933L279.808 24.5365V26.8748H275.808Z" fill="#fff" stroke="#fff"/>
</svg>